<mxfile host="app.diagrams.net" modified="2023-07-27T13:15:21.894Z" agent="Mozilla/5.0 (Windows NT 10.0; Win64; x64) AppleWebKit/537.36 (KHTML, like Gecko) Chrome/115.0.0.0 Safari/537.36 Edg/115.0.1901.183" etag="jtAEG5KivlIrrZlBUToV" version="21.6.1" type="github">
  <diagram name="第 1 页" id="VCtuRbkLPISpghEGxQWk">
    <mxGraphModel dx="1186" dy="788" grid="1" gridSize="10" guides="1" tooltips="1" connect="1" arrows="1" fold="1" page="1" pageScale="1" pageWidth="1169" pageHeight="827" math="0" shadow="0">
      <root>
        <mxCell id="0" />
        <mxCell id="1" parent="0" />
        <mxCell id="Xr49nV5_V8A7EtcW6IGt-1" value="" style="ellipse;whiteSpace=wrap;html=1;aspect=fixed;fillColor=#dae8fc;strokeColor=#6c8ebf;" vertex="1" parent="1">
          <mxGeometry x="75" y="223" width="240" height="240" as="geometry" />
        </mxCell>
        <mxCell id="Xr49nV5_V8A7EtcW6IGt-2" value="&lt;font style=&quot;font-size: 20px;&quot;&gt;Set集合&lt;/font&gt;" style="text;html=1;strokeColor=none;fillColor=none;align=center;verticalAlign=middle;whiteSpace=wrap;rounded=0;" vertex="1" parent="1">
          <mxGeometry x="147.5" y="260" width="95" height="30" as="geometry" />
        </mxCell>
        <mxCell id="Xr49nV5_V8A7EtcW6IGt-3" value="id1" style="ellipse;whiteSpace=wrap;html=1;aspect=fixed;fillColor=#fff2cc;strokeColor=#d6b656;" vertex="1" parent="1">
          <mxGeometry x="110" y="320" width="46" height="46" as="geometry" />
        </mxCell>
        <mxCell id="Xr49nV5_V8A7EtcW6IGt-4" value="" style="shape=flexArrow;endArrow=classic;html=1;rounded=0;" edge="1" parent="1">
          <mxGeometry width="50" height="50" relative="1" as="geometry">
            <mxPoint x="350" y="359.5" as="sourcePoint" />
            <mxPoint x="410" y="359.5" as="targetPoint" />
          </mxGeometry>
        </mxCell>
        <mxCell id="Xr49nV5_V8A7EtcW6IGt-5" value="" style="ellipse;whiteSpace=wrap;html=1;aspect=fixed;fillColor=#dae8fc;strokeColor=#6c8ebf;" vertex="1" parent="1">
          <mxGeometry x="430" y="230" width="240" height="240" as="geometry" />
        </mxCell>
        <mxCell id="Xr49nV5_V8A7EtcW6IGt-6" value="id1" style="ellipse;whiteSpace=wrap;html=1;aspect=fixed;fillColor=#fff2cc;strokeColor=#d6b656;" vertex="1" parent="1">
          <mxGeometry x="450" y="310" width="46" height="46" as="geometry" />
        </mxCell>
        <mxCell id="Xr49nV5_V8A7EtcW6IGt-7" value="id2" style="ellipse;whiteSpace=wrap;html=1;aspect=fixed;fillColor=#ffe6cc;strokeColor=#d79b00;" vertex="1" parent="1">
          <mxGeometry x="510" y="290" width="46" height="46" as="geometry" />
        </mxCell>
        <mxCell id="Xr49nV5_V8A7EtcW6IGt-8" value="id3" style="ellipse;whiteSpace=wrap;html=1;aspect=fixed;fillColor=#ffe6cc;strokeColor=#d79b00;" vertex="1" parent="1">
          <mxGeometry x="496" y="350" width="46" height="46" as="geometry" />
        </mxCell>
        <mxCell id="Xr49nV5_V8A7EtcW6IGt-9" value="id4" style="ellipse;whiteSpace=wrap;html=1;aspect=fixed;fillColor=#ffe6cc;strokeColor=#d79b00;" vertex="1" parent="1">
          <mxGeometry x="556" y="368" width="46" height="46" as="geometry" />
        </mxCell>
        <mxCell id="Xr49nV5_V8A7EtcW6IGt-10" value="&lt;font style=&quot;font-size: 20px;&quot;&gt;Set集合&lt;/font&gt;" style="text;html=1;strokeColor=none;fillColor=none;align=center;verticalAlign=middle;whiteSpace=wrap;rounded=0;" vertex="1" parent="1">
          <mxGeometry x="502.5" y="260" width="95" height="30" as="geometry" />
        </mxCell>
        <mxCell id="Xr49nV5_V8A7EtcW6IGt-11" value="" style="ellipse;whiteSpace=wrap;html=1;aspect=fixed;fillColor=#dae8fc;strokeColor=#6c8ebf;" vertex="1" parent="1">
          <mxGeometry x="800" y="240" width="240" height="240" as="geometry" />
        </mxCell>
        <mxCell id="Xr49nV5_V8A7EtcW6IGt-12" value="" style="shape=flexArrow;endArrow=classic;html=1;rounded=0;" edge="1" parent="1">
          <mxGeometry width="50" height="50" relative="1" as="geometry">
            <mxPoint x="710" y="350" as="sourcePoint" />
            <mxPoint x="770" y="350.5" as="targetPoint" />
          </mxGeometry>
        </mxCell>
        <mxCell id="Xr49nV5_V8A7EtcW6IGt-13" value="&lt;font style=&quot;font-size: 20px;&quot;&gt;Set集合&lt;/font&gt;" style="text;html=1;strokeColor=none;fillColor=none;align=center;verticalAlign=middle;whiteSpace=wrap;rounded=0;" vertex="1" parent="1">
          <mxGeometry x="872.5" y="260" width="95" height="30" as="geometry" />
        </mxCell>
        <mxCell id="Xr49nV5_V8A7EtcW6IGt-14" value="id1" style="ellipse;whiteSpace=wrap;html=1;aspect=fixed;fillColor=#fff2cc;strokeColor=#d6b656;" vertex="1" parent="1">
          <mxGeometry x="815.5" y="330" width="46" height="46" as="geometry" />
        </mxCell>
        <mxCell id="Xr49nV5_V8A7EtcW6IGt-15" value="id2" style="ellipse;whiteSpace=wrap;html=1;aspect=fixed;fillColor=#ffe6cc;strokeColor=#d79b00;" vertex="1" parent="1">
          <mxGeometry x="875.5" y="310" width="46" height="46" as="geometry" />
        </mxCell>
        <mxCell id="Xr49nV5_V8A7EtcW6IGt-16" value="id3" style="ellipse;whiteSpace=wrap;html=1;aspect=fixed;fillColor=#ffe6cc;strokeColor=#d79b00;" vertex="1" parent="1">
          <mxGeometry x="861.5" y="370" width="46" height="46" as="geometry" />
        </mxCell>
        <mxCell id="Xr49nV5_V8A7EtcW6IGt-17" value="id4" style="ellipse;whiteSpace=wrap;html=1;aspect=fixed;fillColor=#ffe6cc;strokeColor=#d79b00;" vertex="1" parent="1">
          <mxGeometry x="921.5" y="388" width="46" height="46" as="geometry" />
        </mxCell>
        <mxCell id="Xr49nV5_V8A7EtcW6IGt-18" value="id5" style="ellipse;whiteSpace=wrap;html=1;aspect=fixed;fillColor=#f8cecc;strokeColor=#b85450;" vertex="1" parent="1">
          <mxGeometry x="940" y="310" width="46" height="46" as="geometry" />
        </mxCell>
        <mxCell id="Xr49nV5_V8A7EtcW6IGt-19" value="id6" style="ellipse;whiteSpace=wrap;html=1;aspect=fixed;fillColor=#f8cecc;strokeColor=#b85450;" vertex="1" parent="1">
          <mxGeometry x="980" y="350" width="46" height="46" as="geometry" />
        </mxCell>
        <mxCell id="Xr49nV5_V8A7EtcW6IGt-20" value="for循环" style="text;html=1;strokeColor=none;fillColor=none;align=center;verticalAlign=middle;whiteSpace=wrap;rounded=0;" vertex="1" parent="1">
          <mxGeometry x="340" y="310" width="60" height="30" as="geometry" />
        </mxCell>
        <mxCell id="Xr49nV5_V8A7EtcW6IGt-21" value="for循环" style="text;html=1;strokeColor=none;fillColor=none;align=center;verticalAlign=middle;whiteSpace=wrap;rounded=0;" vertex="1" parent="1">
          <mxGeometry x="710" y="298" width="60" height="30" as="geometry" />
        </mxCell>
        <mxCell id="Xr49nV5_V8A7EtcW6IGt-22" value="SELECT XXX WHERE id in (id1, id2, id3, id4, id5)" style="text;html=1;strokeColor=none;fillColor=none;align=center;verticalAlign=middle;whiteSpace=wrap;rounded=0;" vertex="1" parent="1">
          <mxGeometry x="800" y="500" width="285" height="50" as="geometry" />
        </mxCell>
        <mxCell id="Xr49nV5_V8A7EtcW6IGt-23" value="当set的size不再增大" style="rounded=0;whiteSpace=wrap;html=1;" vertex="1" parent="1">
          <mxGeometry x="680" y="510" width="120" height="30" as="geometry" />
        </mxCell>
      </root>
    </mxGraphModel>
  </diagram>
</mxfile>
